<?xml version="1.0" standalone="no"?>
<!DOCTYPE svg PUBLIC "-//W3C//DTD SVG 20010904//EN"
 "http://www.w3.org/TR/2001/REC-SVG-20010904/DTD/svg10.dtd">
<svg version="1.0" xmlns="http://www.w3.org/2000/svg"
 width="124.000000pt" height="170.000000pt" viewBox="0 0 124.000000 170.000000"
 preserveAspectRatio="xMidYMid meet">

<g transform="translate(0.000000,170.000000) scale(0.100000,-0.100000)"
fill="#000000" stroke="none">
<path d="M15 1688 c-2 -7 -6 -59 -10 -115 l-6 -103 36 0 35 0 0 88 c1 99 11
94 30 -15 l13 -73 33 0 c35 0 34 -2 60 135 7 37 8 38 15 15 4 -14 7 -53 8 -87
l1 -63 30 0 30 0 0 84 c0 46 -3 98 -6 115 -7 31 -8 32 -58 29 -51 -3 -51 -3
-60 -43 -17 -80 -22 -83 -35 -17 l-12 62 -50 0 c-31 0 -51 -5 -54 -12z"/>
<path d="M385 1691 c-54 -23 -81 -108 -55 -171 27 -66 140 -81 187 -25 33 38
33 132 0 170 -25 29 -94 43 -132 26z m80 -64 c4 -13 5 -43 3 -68 -3 -40 -6
-44 -30 -47 -23 -3 -30 2 -39 25 -6 15 -8 47 -4 71 6 38 9 42 35 42 23 0 31
-6 35 -23z"/>
<path d="M632 1685 c-43 -19 -66 -72 -57 -130 10 -69 65 -105 140 -91 28 6 35
11 35 31 0 22 -4 24 -40 22 -51 -2 -63 12 -62 69 0 53 11 64 65 64 30 0 37 4
37 19 0 33 -59 41 -118 16z"/>
<path d="M787 1693 c-4 -3 -7 -55 -7 -115 l0 -108 34 0 c34 0 35 1 38 48 3 45
4 47 33 47 29 0 30 -1 30 -48 0 -46 0 -47 33 -47 l32 0 0 116 0 115 -32 -3
c-30 -3 -32 -5 -32 -43 -1 -38 -3 -40 -33 -43 -33 -3 -33 -3 -33 42 0 44 -1
46 -28 46 -16 0 -32 -3 -35 -7z"/>
<path d="M1052 1608 c-17 -51 -33 -103 -37 -115 -6 -21 -3 -23 29 -23 28 0 35
4 38 23 2 17 11 23 36 25 27 3 34 -1 42 -22 7 -20 16 -26 40 -26 16 0 30 3 30
8 0 4 -14 55 -31 115 l-32 107 -43 0 -43 0 -29 -92z m87 -25 c1 -17 -5 -23
-20 -23 -18 0 -20 4 -14 33 4 17 10 36 13 41 7 12 20 -21 21 -51z"/>
<path d="M512 1351 c-45 -27 -85 -51 -88 -54 -3 -3 59 -43 138 -89 274 -162
629 -368 633 -368 2 0 -126 126 -286 280 -159 154 -295 280 -302 279 -7 0 -49
-22 -95 -48z"/>
<path d="M320 982 c157 -155 289 -281 294 -281 11 -1 184 97 190 108 3 4 -23
23 -57 43 -34 19 -190 109 -347 200 -157 91 -303 176 -325 188 -26 14 63 -79
245 -258z"/>
<path d="M315 148 c-29 -16 -35 -28 -35 -70 0 -52 29 -80 78 -76 45 4 52 31 9
36 -55 7 -60 82 -5 82 23 0 29 4 26 18 -4 21 -45 27 -73 10z"/>
<path d="M420 80 c0 -72 2 -80 19 -80 15 0 21 8 23 33 2 24 8 33 26 35 19 3
22 -1 22 -33 0 -32 3 -36 23 -33 21 3 22 8 22 78 0 68 -2 75 -20 75 -14 0 -21
-8 -23 -28 -3 -23 -8 -28 -25 -25 -16 2 -23 11 -25 31 -2 19 -9 27 -23 27 -17
0 -19 -8 -19 -80z"/>
<path d="M624 148 c-11 -16 -44 -119 -44 -135 0 -21 37 -15 43 7 7 27 41 26
59 -2 9 -13 20 -19 30 -15 15 5 14 14 -7 79 -20 63 -26 73 -48 76 -14 2 -29
-3 -33 -10z m39 -80 c-2 -4 -10 -5 -18 -2 -8 4 -13 9 -11 13 1 3 6 15 11 26 7
19 8 19 15 -5 4 -14 5 -28 3 -32z"/>
<path d="M750 80 c0 -73 2 -80 20 -80 18 0 20 7 20 80 0 73 -2 80 -20 80 -18
0 -20 -7 -20 -80z"/>
<path d="M824 146 c-3 -7 -4 -42 -2 -77 2 -51 6 -64 21 -67 14 -3 17 4 17 37
0 23 4 41 8 41 5 0 18 -18 31 -40 14 -25 29 -40 42 -40 17 0 19 8 19 81 0 71
-2 80 -17 77 -13 -2 -20 -16 -23 -43 l-5 -39 -28 42 c-27 42 -53 54 -63 28z"/>
</g>
</svg>
